# xmcd CD database file
#
# Track frame offsets:
#	150
#	15308
#	30414
#	41314
#	52454
#	66210
#	78561
#	90323
#	102118
#	150186
#	165381
#	194841
#	218128
#	231735
#
# Disc length: 3269 seconds
#
# Revision: 1
# Processed by: cddbd v1.5.2PL0 Copyright (c) Steve Scherf et al.
# Submitted via: CDex 1.70beta2
#
DISCID=ae0cc30e
DTITLE=Dave Brubeck - I'll Remember April CD1
DYEAR=1900
DGENRE=Jazz
TTITLE0=All The Things You Are
TTITLE1=I'll Remeber April
TTITLE2=Let's Fall In Love
TTITLE3=Undecided
TTITLE4=The Way You Look Tonight
TTITLE5=Sweet Georgia Brown
TTITLE6=Freseni
TTITLE7=That Old Black Magic
TTITLE8=Little Girl Blue
TTITLE9=September Song
TTITLE10=These Foolish Things
TTITLE11=Spring Is Here
TTITLE12=Sturdust
TTITLE13=You Got O My Head
EXTD=
EXTT0=
EXTT1=
EXTT2=
EXTT3=
EXTT4=
EXTT5=
EXTT6=
EXTT7=
EXTT8=
EXTT9=
EXTT10=
EXTT11=
EXTT12=
EXTT13=
PLAYORDER=
